<?xml version="1.0" standalone="no"?>
<!DOCTYPE svg PUBLIC "-//W3C//DTD SVG 20010904//EN"
 "http://www.w3.org/TR/2001/REC-SVG-20010904/DTD/svg10.dtd">
<svg version="1.0" xmlns="http://www.w3.org/2000/svg"
 width="260.000000pt" height="260.000000pt" viewBox="0 0 260.000000 260.000000"
 preserveAspectRatio="xMidYMid meet">
<metadata>
Created by potrace 1.14, written by Peter Selinger 2001-2017
</metadata>
<g transform="translate(0.000000,260.000000) scale(0.100000,-0.100000)"
fill="#000000" stroke="none">
<path d="M0 1300 l0 -1300 1300 0 1300 0 0 1300 0 1300 -1300 0 -1300 0 0
-1300z m961 857 c96 -51 135 -167 89 -263 l-23 -46 22 -47 c88 -187 247 -510
251 -510 4 0 163 323 251 510 l22 47 -23 46 c-65 135 36 286 190 286 202 0
287 -248 124 -363 -21 -15 -59 -31 -82 -35 l-44 -7 -174 -325 -174 -325 0
-174 0 -174 40 -35 c104 -89 107 -221 6 -310 -78 -68 -194 -68 -272 0 -101 89
-98 221 6 310 l40 35 0 174 0 174 -174 325 -174 325 -44 7 c-58 10 -116 53
-146 108 -19 36 -23 56 -20 103 8 109 94 187 208 187 40 0 70 -7 101 -23z"/>
</g>
</svg>
